<svg width="20" height="20" viewBox="0 0 20 20" fill="none" xmlns="http://www.w3.org/2000/svg">
<path d="M1.52344 11.2109H8.78906V18.4766C8.78906 19.1444 9.33216 19.6875 10 19.6875C10.6678 19.6875 11.2109 19.1444 11.2109 18.4766V11.2109H18.4766C19.1444 11.2109 19.6875 10.6678 19.6875 10C19.6875 9.33216 19.1444 8.78906 18.4766 8.78906H11.2109V1.52344C11.2109 0.8556 10.6678 0.3125 10 0.3125C9.33216 0.3125 8.78906 0.8556 8.78906 1.52344V8.78906H1.52344C0.8556 8.78906 0.3125 9.33216 0.3125 10C0.3125 10.6678 0.8556 11.2109 1.52344 11.2109Z" fill="#010101"/>
</svg>
