<svg width="20" height="20" viewBox="0 0 20 20" fill="none" xmlns="http://www.w3.org/2000/svg">
<path d="M10.0001 11.6667C10.1649 11.6667 10.326 11.6178 10.4631 11.5262C10.6001 11.4347 10.7069 11.3045 10.77 11.1523C10.8331 11 10.8496 10.8324 10.8174 10.6708C10.7852 10.5091 10.7059 10.3606 10.5893 10.2441C10.4728 10.1276 10.3243 10.0482 10.1627 10.016C10.001 9.98388 9.83345 10.0004 9.68118 10.0635C9.52891 10.1265 9.39876 10.2333 9.30719 10.3704C9.21562 10.5074 9.16675 10.6685 9.16675 10.8334C9.16675 11.0544 9.25455 11.2663 9.41083 11.4226C9.56711 11.5789 9.77907 11.6667 10.0001 11.6667ZM14.1667 11.6667C14.3316 11.6667 14.4927 11.6178 14.6297 11.5262C14.7668 11.4347 14.8736 11.3045 14.9366 11.1523C14.9997 11 15.0162 10.8324 14.9841 10.6708C14.9519 10.5091 14.8725 10.3606 14.756 10.2441C14.6395 10.1276 14.491 10.0482 14.3293 10.016C14.1677 9.98388 14.0001 10.0004 13.8478 10.0635C13.6956 10.1265 13.5654 10.2333 13.4739 10.3704C13.3823 10.5074 13.3334 10.6685 13.3334 10.8334C13.3334 11.0544 13.4212 11.2663 13.5775 11.4226C13.7338 11.5789 13.9457 11.6667 14.1667 11.6667ZM10.0001 15C10.1649 15 10.326 14.9511 10.4631 14.8596C10.6001 14.768 10.7069 14.6379 10.77 14.4856C10.8331 14.3333 10.8496 14.1658 10.8174 14.0041C10.7852 13.8425 10.7059 13.694 10.5893 13.5774C10.4728 13.4609 10.3243 13.3815 10.1627 13.3494C10.001 13.3172 9.83345 13.3337 9.68118 13.3968C9.52891 13.4599 9.39876 13.5667 9.30719 13.7037C9.21562 13.8408 9.16675 14.0019 9.16675 14.1667C9.16675 14.3877 9.25455 14.5997 9.41083 14.7559C9.56711 14.9122 9.77907 15 10.0001 15ZM14.1667 15C14.3316 15 14.4927 14.9511 14.6297 14.8596C14.7668 14.768 14.8736 14.6379 14.9366 14.4856C14.9997 14.3333 15.0162 14.1658 14.9841 14.0041C14.9519 13.8425 14.8725 13.694 14.756 13.5774C14.6395 13.4609 14.491 13.3815 14.3293 13.3494C14.1677 13.3172 14.0001 13.3337 13.8478 13.3968C13.6956 13.4599 13.5654 13.5667 13.4739 13.7037C13.3823 13.8408 13.3334 14.0019 13.3334 14.1667C13.3334 14.3877 13.4212 14.5997 13.5775 14.7559C13.7338 14.9122 13.9457 15 14.1667 15ZM5.83341 11.6667C5.99823 11.6667 6.15935 11.6178 6.29639 11.5262C6.43343 11.4347 6.54024 11.3045 6.60331 11.1523C6.66639 11 6.68289 10.8324 6.65074 10.6708C6.61858 10.5091 6.53921 10.3606 6.42267 10.2441C6.30613 10.1276 6.15764 10.0482 5.99599 10.016C5.83434 9.98388 5.66678 10.0004 5.51451 10.0635C5.36224 10.1265 5.23209 10.2333 5.14052 10.3704C5.04896 10.5074 5.00008 10.6685 5.00008 10.8334C5.00008 11.0544 5.08788 11.2663 5.24416 11.4226C5.40044 11.5789 5.6124 11.6667 5.83341 11.6667ZM15.8334 3.33335H15.0001V2.50002C15.0001 2.27901 14.9123 2.06704 14.756 1.91076C14.5997 1.75448 14.3878 1.66669 14.1667 1.66669C13.9457 1.66669 13.7338 1.75448 13.5775 1.91076C13.4212 2.06704 13.3334 2.27901 13.3334 2.50002V3.33335H6.66675V2.50002C6.66675 2.27901 6.57895 2.06704 6.42267 1.91076C6.26639 1.75448 6.05443 1.66669 5.83341 1.66669C5.6124 1.66669 5.40044 1.75448 5.24416 1.91076C5.08788 2.06704 5.00008 2.27901 5.00008 2.50002V3.33335H4.16675C3.50371 3.33335 2.86782 3.59675 2.39898 4.06559C1.93014 4.53443 1.66675 5.17031 1.66675 5.83335V15.8334C1.66675 16.4964 1.93014 17.1323 2.39898 17.6011C2.86782 18.07 3.50371 18.3334 4.16675 18.3334H15.8334C16.4965 18.3334 17.1323 18.07 17.6012 17.6011C18.07 17.1323 18.3334 16.4964 18.3334 15.8334V5.83335C18.3334 5.17031 18.07 4.53443 17.6012 4.06559C17.1323 3.59675 16.4965 3.33335 15.8334 3.33335ZM16.6667 15.8334C16.6667 16.0544 16.579 16.2663 16.4227 16.4226C16.2664 16.5789 16.0544 16.6667 15.8334 16.6667H4.16675C3.94573 16.6667 3.73377 16.5789 3.57749 16.4226C3.42121 16.2663 3.33341 16.0544 3.33341 15.8334V8.33335H16.6667V15.8334ZM16.6667 6.66669H3.33341V5.83335C3.33341 5.61234 3.42121 5.40038 3.57749 5.2441C3.73377 5.08782 3.94573 5.00002 4.16675 5.00002H15.8334C16.0544 5.00002 16.2664 5.08782 16.4227 5.2441C16.579 5.40038 16.6667 5.61234 16.6667 5.83335V6.66669ZM5.83341 15C5.99823 15 6.15935 14.9511 6.29639 14.8596C6.43343 14.768 6.54024 14.6379 6.60331 14.4856C6.66639 14.3333 6.68289 14.1658 6.65074 14.0041C6.61858 13.8425 6.53921 13.694 6.42267 13.5774C6.30613 13.4609 6.15764 13.3815 5.99599 13.3494C5.83434 13.3172 5.66678 13.3337 5.51451 13.3968C5.36224 13.4599 5.23209 13.5667 5.14052 13.7037C5.04896 13.8408 5.00008 14.0019 5.00008 14.1667C5.00008 14.3877 5.08788 14.5997 5.24416 14.7559C5.40044 14.9122 5.6124 15 5.83341 15Z" fill="#878A8B"/>
</svg>
