<svg width="30" height="30" viewBox="0 0 30 30" fill="none" xmlns="http://www.w3.org/2000/svg">
<g clip-path="url(#clip0_1_279)">
<path d="M27.064 15.8292C27.2764 15.6168 27.3936 15.3344 27.3936 15.0336C27.3936 14.7332 27.2764 14.4508 27.064 14.238L22.74 9.91401C22.5276 9.70161 22.2452 9.58441 21.9448 9.58441C21.644 9.58441 21.3616 9.70121 21.1492 9.91401C20.9368 10.1268 20.8196 10.4088 20.8196 10.7092C20.8196 11.0096 20.9368 11.2924 21.1492 11.5044L24.3948 14.7504C24.5512 14.9068 24.5512 15.1596 24.3948 15.316L21.1492 18.562C20.9368 18.7744 20.8196 19.0568 20.8196 19.3572C20.8196 19.6576 20.9368 19.9404 21.1492 20.1524C21.5736 20.5776 22.3144 20.578 22.7404 20.1524L27.064 15.8292Z" fill="black"/>
<path d="M9.45202 13.5164C8.61082 13.5164 7.92682 14.2004 7.92682 15.0416C7.92682 15.8828 8.61082 16.5664 9.45202 16.5664H20.3804C21.2216 16.5664 21.9056 15.8824 21.9056 15.0416C21.9056 14.2008 21.2216 13.5164 20.3804 13.5164H9.45202Z" fill="black"/>
<path d="M20.3804 16.9664H9.45199C8.39079 16.9664 7.52679 16.1028 7.52679 15.0416C7.52679 13.98 8.39039 13.1164 9.45199 13.1164H20.3804C21.4416 13.1164 22.3056 13.98 22.3056 15.0416C22.3056 16.1028 21.4416 16.9664 20.3804 16.9664ZM9.45199 13.9164C8.83159 13.9164 8.32679 14.4212 8.32679 15.0416C8.32679 15.662 8.83159 16.1664 9.45199 16.1664H20.3804C21.0008 16.1664 21.5056 15.662 21.5056 15.0416C21.5056 14.4212 21.0008 13.9164 20.3804 13.9164H9.45199Z" fill="black"/>
<path d="M26.6092 15.3744L22.2852 19.6984C21.9972 19.9864 21.614 20.1452 21.2072 20.1452C21.1828 20.1452 21.16 20.138 21.136 20.1368C21.1408 20.142 21.144 20.148 21.1492 20.1528C21.5736 20.578 22.3144 20.5784 22.7404 20.1528L27.0644 15.8288C27.2768 15.6164 27.394 15.334 27.394 15.0332C27.394 14.7328 27.2768 14.4504 27.0644 14.2376L27.0492 14.2224C27.0504 14.2468 27.0564 14.2704 27.0564 14.2952C27.056 14.7036 26.8976 15.0864 26.6092 15.3744Z" fill="black"/>
<path d="M21.9448 21.2828C21.4304 21.2828 20.9468 21.0824 20.5836 20.7188C20.22 20.3552 20.0196 19.872 20.0196 19.3576C20.0196 18.8436 20.22 18.36 20.5836 17.9964L23.5464 15.0336L20.5836 12.0708C20.22 11.7072 20.0196 11.224 20.0196 10.7096C20.0196 10.1956 20.22 9.71199 20.5836 9.34839C20.9468 8.98479 21.4304 8.78479 21.9448 8.78479C22.4592 8.78479 22.9424 8.98479 23.3056 9.34879L27.6296 13.6728C27.9932 14.0364 28.1936 14.52 28.1936 15.034C28.1936 15.5484 27.9932 16.0316 27.6296 16.3952L23.3056 20.7192C22.9424 21.0824 22.4588 21.2828 21.9448 21.2828ZM21.9448 9.58479C21.644 9.58479 21.3616 9.70159 21.1492 9.91439C20.9368 10.1272 20.8196 10.4092 20.8196 10.7096C20.8196 11.01 20.9368 11.2928 21.1492 11.5048L24.3948 14.7508C24.5512 14.9072 24.5512 15.16 24.3948 15.3164L21.1492 18.5624C20.9368 18.7748 20.8196 19.0572 20.8196 19.3576C20.8196 19.658 20.9368 19.9408 21.1492 20.1528C21.5736 20.578 22.3144 20.5784 22.7404 20.1528L27.0644 15.8288C27.2768 15.6164 27.394 15.334 27.394 15.0332C27.394 14.7328 27.2768 14.4504 27.0644 14.2376L22.7404 9.91359C22.5276 9.70159 22.2452 9.58479 21.9448 9.58479Z" fill="black"/>
<path d="M19.06 4.59238C19.06 3.47518 18.1512 2.56598 17.034 2.56598H4.63278C3.51518 2.56598 2.60638 3.47478 2.60638 4.59238V25.4072C2.60638 26.5244 3.51518 27.4336 4.63278 27.4336H17.034C18.1512 27.4336 19.06 26.5248 19.06 25.4072V20.2864C19.06 19.622 18.5192 19.0812 17.8548 19.0812C17.5324 19.0812 17.2296 19.2068 17.0024 19.4344C16.7748 19.6624 16.6492 19.9656 16.6496 20.288L16.6584 24.608C16.6588 24.8288 16.4804 25.0084 16.2592 25.0088L5.43238 25.032C5.43198 25.032 5.43198 25.032 5.43158 25.032C5.32558 25.032 5.22398 24.99 5.14918 24.9152C5.07398 24.84 5.03158 24.7384 5.03158 24.6324L5.00678 5.36678C5.00678 5.26038 5.04838 5.15838 5.12358 5.08358C5.19878 5.00838 5.30038 4.96638 5.40678 4.96638H16.2344C16.4552 4.96638 16.634 5.14478 16.6344 5.36558L16.6436 9.77958C16.6444 10.4456 17.186 10.9868 17.852 10.9868C18.518 10.9868 19.06 10.4448 19.06 9.77838V4.59238Z" fill="black"/>
<path d="M17.034 28.2336H4.6328C3.0744 28.2336 1.8064 26.9656 1.8064 25.4072V4.59239C1.8064 3.03399 3.0744 1.76599 4.6328 1.76599H17.034C18.5924 1.76599 19.86 3.03399 19.86 4.59239V9.77839C19.86 10.886 18.9592 11.7868 17.852 11.7868C16.7456 11.7868 15.8444 10.8868 15.8436 9.78079L15.8352 5.76639H5.8072L5.8312 24.2312L15.858 24.21L15.8496 20.2896C15.8492 19.7528 16.0576 19.2484 16.436 18.8696C16.8148 18.4904 17.3188 18.2816 17.8548 18.2816C18.9604 18.2816 19.86 19.1812 19.86 20.2868V25.4076C19.86 26.966 18.592 28.2336 17.034 28.2336ZM4.6328 2.56639C3.5152 2.56639 2.6064 3.47519 2.6064 4.59279V25.4076C2.6064 26.5248 3.5152 27.434 4.6328 27.434H17.034C18.1512 27.434 19.06 26.5252 19.06 25.4076V20.2864C19.06 19.622 18.5192 19.0812 17.8548 19.0812C17.5324 19.0812 17.2296 19.2068 17.0024 19.4344C16.7748 19.6624 16.6492 19.9656 16.6496 20.288L16.6584 24.608C16.6588 24.8288 16.4804 25.0084 16.2592 25.0088L5.4324 25.032C5.432 25.032 5.432 25.032 5.4316 25.032C5.3256 25.032 5.224 24.99 5.1492 24.9152C5.074 24.84 5.0316 24.7384 5.0316 24.6324L5.0068 5.36679C5.0068 5.26039 5.0484 5.15839 5.1236 5.08359C5.1988 5.00839 5.3004 4.96639 5.4068 4.96639H16.2344C16.4552 4.96639 16.634 5.14479 16.6344 5.36559L16.6436 9.77959C16.6444 10.4456 17.186 10.9868 17.852 10.9868C18.518 10.9868 19.06 10.4448 19.06 9.77839V4.59239C19.06 3.47519 18.1512 2.56599 17.034 2.56599H4.6328V2.56639Z" fill="black"/>
</g>
<defs>
<clipPath id="clip0_1_279">
<rect width="30" height="30" fill="white"/>
</clipPath>
</defs>
</svg>
